# xmcd CD database file generated by MAGIX_Freedb v0.9beta0
# 
# Track frame offsets:
#      150
#      17177
#      46890
#      62967
#      92055
#      107170
#      124975
#      142522
#      157267
#      171747
#      213150
# 
# Disc length: 3331 seconds
# 
# Revision: 0 
# Processed by: cddbd v1.4PL0 Copyright (c) Steve Scherf et al.
# Submitted via: MAGIX_Freedb v0.9beta0
# 
DISCID=9e0d010b
DTITLE=Van Morrison - Hymns to the silence - Volume 1
DYEAR=1991
DGENRE=
TTITLE0=Van Morrison - Professional Jealousy
TTITLE1=Van Morrison - I'm non feeling it anymore
TTITLE2=Van Morrison - Ordinary life
TTITLE3=Van Morrison - Some peace of mind
TTITLE4=Van Morrison - So complicated
TTITLE5=Van Morrison - I can't stop loving you
TTITLE6=Van Morrison - Why must i always explain
TTITLE7=Van Morrison - Village idiot
TTITLE8=Van Morrison - See me through part 2
TTITLE9=Van Morrison - Take me back
TTITLE10=Van Morrison - Tell me what you want - Instrumental
EXTD=
EXTT0=
EXTT1=
EXTT2=
EXTT3=
EXTT4=
EXTT5=
EXTT6=
EXTT7=
EXTT8=
EXTT9=
EXTT10=
PLAYORDER=
